. 
 
http://www.torrenting.com          :     Once & For all ;)


               www . Torrenting . Com 

(((((((((((((= Enjoy No RAR releases =))))))))))))))))))))


...................................NFO:....................................

.General
Complete name                    : Love (2011)H.264MPEG-4 AVC .avi
Format                           : MPEG-4
Format profile                   : Base Media
Codec ID                         : isom
File size                        : 842 MiB
Duration                         : 1h 23mn
Overall bit rate                 : 1 408 Kbps
Writing application              : Lavf52.34.0

Video
ID                               : 1
Format                           : AVC
Format/Info                      : Advanced Video Codec
Format profile                   : High@L3.1
Format settings, CABAC           : Yes
Format settings, ReFrames        : 1 frame
Codec ID                         : avc1
Codec ID/Info                    : Advanced Video Coding
Duration                         : 1h 23mn
Bit rate mode                    : Variable
Bit rate                         : 1 261 Kbps
Width                            : 1 280 pixels
Height                           : 720 pixels
Display aspect ratio             : 16:9
Frame rate mode                  : Constant
Frame rate                       : 29.970 fps
Resolution                       : 24 bits
Colorimetry                      : 4:2:0
Scan type                        : Progressive
Bits/(Pixel*Frame)               : 0.046
Stream size                      : 753 MiB (90%)

Audio
ID                               : 2
Format                           : AAC
Format/Info                      : Advanced Audio Codec
Format version                   : Version 4
Format profile                   : LC
Format settings, SBR             : No
Codec ID                         : 40
Duration                         : 1h 23mn
Bit rate mode                    : Variable
Bit rate                         : 144 Kbps
Channel(s)                       : 2 channels
Channel positions                : L R
Sampling rate                    : 44.1 KHz
Resolution                       : 16 bits
Stream size                      : 85.6 MiB (10%)